<svg width="20" height="22" viewBox="0 0 20 22" fill="none" xmlns="http://www.w3.org/2000/svg">
<path d="M17.7778 2.2H16.6667V0H14.4444V2.2H5.55556V0H3.33333V2.2H2.22222C0.988889 2.2 0 3.19 0 4.4V19.8C0 21.01 0.988889 22 2.22222 22H17.7778C19 22 20 21.01 20 19.8V4.4C20 3.19 19 2.2 17.7778 2.2ZM10 5.5C11.8444 5.5 13.3333 6.974 13.3333 8.8C13.3333 10.626 11.8444 12.1 10 12.1C8.15556 12.1 6.66667 10.626 6.66667 8.8C6.66667 6.974 8.15556 5.5 10 5.5ZM16.6667 18.7H3.33333V17.6C3.33333 15.4 7.77778 14.19 10 14.19C12.2222 14.19 16.6667 15.4 16.6667 17.6V18.7Z" fill="#367BFF"/>
</svg>
