<svg width="23" height="23" viewBox="0 0 23 23" fill="none" xmlns="http://www.w3.org/2000/svg">
<path d="M11.25 0C5.02875 0 0 5.02875 0 11.25C0 17.4713 5.02875 22.5 11.25 22.5C17.4713 22.5 22.5 17.4713 22.5 11.25C22.5 5.02875 17.4713 0 11.25 0Z" fill="#3E80FF"/>
<path d="M15.4851 4.75C15.3235 4.75 15.1617 4.81156 15.0385 4.93503L13.9604 6.01316L16.4867 8.53947L17.5648 7.46135C17.8117 7.2144 17.8117 6.81457 17.5648 6.56826L15.9316 4.93503C15.8081 4.81156 15.6467 4.75 15.4851 4.75ZM13.0131 6.96053L5.75 14.2237V16.75H8.27628L15.5393 9.48684L13.0131 6.96053Z" fill="white"/>
</svg>
