<svg width="20" height="19" viewBox="0 0 20 19" fill="none" xmlns="http://www.w3.org/2000/svg">
<path fill-rule="evenodd" clip-rule="evenodd" d="M10 2.78074L17.9993 10.7801V16.3889C17.9993 16.9193 17.7886 17.428 17.4136 17.803C17.0385 18.1781 16.5299 18.3888 15.9995 18.3888H4.0005C3.47011 18.3888 2.96145 18.1781 2.58641 17.803C2.21137 17.428 2.00067 16.9193 2.00067 16.3889V10.7801L10 2.78074ZM16.6661 1.7235V6.38977L13.9997 3.72333V1.7235C13.9997 1.5467 14.0699 1.37714 14.1949 1.25213C14.3199 1.12712 14.4895 1.05688 14.6663 1.05688H15.9995C16.1763 1.05688 16.3458 1.12712 16.4709 1.25213C16.5959 1.37714 16.6661 1.5467 16.6661 1.7235Z" fill="#367bff"/>
<path fill-rule="evenodd" clip-rule="evenodd" d="M9.05741 0.390349C9.30743 0.140409 9.64648 0 10 0C10.3535 0 10.6926 0.140409 10.9426 0.390349L19.8045 9.25094C19.9297 9.37611 20 9.54588 20 9.7229C20 9.89992 19.9297 10.0697 19.8045 10.1949C19.6793 10.32 19.5096 10.3903 19.3325 10.3903C19.1555 10.3903 18.9858 10.32 18.8606 10.1949L10 1.33294L1.13941 10.1949C1.01424 10.32 0.844472 10.3903 0.667453 10.3903C0.490433 10.3903 0.320664 10.32 0.195492 10.1949C0.0703207 10.0697 0 9.89992 0 9.7229C0 9.54588 0.0703207 9.37611 0.195492 9.25094L9.05741 0.390349Z" fill="#367bff"/>
</svg>
