<svg width="20" height="20" viewBox="0 0 20 20" fill="none" xmlns="http://www.w3.org/2000/svg">
<path d="M0 9.70034C0 4.12639 4.36625 0 10 0C15.6337 0 20 4.12639 20 9.70034C20 15.2743 15.6337 19.4007 10 19.4007C8.9875 19.4007 8.0175 19.2669 7.105 19.0169C6.92806 18.9677 6.73956 18.9809 6.57125 19.0544L4.58625 19.9319C4.46636 19.9848 4.33532 20.0075 4.20465 19.9978C4.07397 19.9882 3.94766 19.9467 3.83681 19.8768C3.72596 19.8069 3.63396 19.7109 3.56892 19.5971C3.50387 19.4834 3.46775 19.3554 3.46375 19.2244L3.40875 17.4456C3.40495 17.3373 3.37917 17.231 3.33296 17.133C3.28676 17.035 3.22111 16.9474 3.14 16.8756C1.195 15.1355 0 12.6154 0 9.70034ZM6.9325 7.87653L3.995 12.5367C3.71375 12.9842 4.2625 13.488 4.68375 13.1692L7.84 10.7741C7.94381 10.6953 8.07047 10.6524 8.20083 10.6519C8.33119 10.6515 8.45815 10.6935 8.5625 10.7716L10.8987 12.5242C11.0645 12.6485 11.2542 12.7371 11.4559 12.7845C11.6577 12.8318 11.867 12.8368 12.0707 12.7993C12.2745 12.7617 12.4683 12.6823 12.6398 12.5661C12.8114 12.4499 12.957 12.2994 13.0675 12.1242L16.005 7.46401C16.2875 7.0165 15.7375 6.51273 15.3163 6.83149L12.16 9.22657C12.0562 9.30542 11.9295 9.34832 11.7992 9.34877C11.6688 9.34922 11.5419 9.3072 11.4375 9.22907L9.10125 7.47526C8.93549 7.35095 8.74577 7.26233 8.54406 7.21499C8.34235 7.16765 8.13301 7.16261 7.92925 7.20019C7.7255 7.23777 7.53174 7.31716 7.36018 7.43335C7.18863 7.54954 7.04301 7.70001 6.9325 7.87528V7.87653Z" fill="#367bff"/>
</svg>
