<svg width="62" height="62" viewBox="0 0 62 62" fill="none" xmlns="http://www.w3.org/2000/svg">
<circle cx="31" cy="31" r="31" fill="#EAF1FF"/>
<path d="M25.25 42.4375C25.25 42.4375 23.6875 42.4375 23.6875 40.875C23.6875 39.3125 25.25 34.625 31.5 34.625C37.75 34.625 39.3125 39.3125 39.3125 40.875C39.3125 42.4375 37.75 42.4375 37.75 42.4375H25.25ZM31.5 33.1406C32.536 33.1406 33.5296 32.7291 34.2621 31.9965C34.9947 31.2639 35.4062 30.2704 35.4062 29.2344C35.4062 28.1984 34.9947 27.2048 34.2621 26.4722C33.5296 25.7397 32.536 25.3281 31.5 25.3281C30.464 25.3281 29.4704 25.7397 28.7379 26.4722C28.0053 27.2048 27.5938 28.1984 27.5938 29.2344C27.5938 30.2704 28.0053 31.2639 28.7379 31.9965C29.4704 32.7291 30.464 33.1406 31.5 33.1406V33.1406Z" fill="#3E80FF"/>
<path d="M22.125 19C21.2962 19 20.5013 19.3292 19.9153 19.9153C19.3292 20.5013 19 21.2962 19 22.125V36.9688C19 37.5904 19.2469 38.1865 19.6865 38.626C20.126 39.0656 20.7221 39.3125 21.3438 39.3125H22.3641C22.6908 38.1643 23.2586 37.0989 24.0297 36.1875H20.5625V22.125C20.5625 21.7106 20.7271 21.3132 21.0201 21.0201C21.3132 20.7271 21.7106 20.5625 22.125 20.5625H40.875C41.2894 20.5625 41.6868 20.7271 41.9799 21.0201C42.2729 21.3132 42.4375 21.7106 42.4375 22.125V36.1875H38.9703C39.8359 37.2094 40.3609 38.3328 40.6359 39.3125H41.6562C42.2779 39.3125 42.874 39.0656 43.3135 38.626C43.7531 38.1865 44 37.5904 44 36.9688V22.125C44 21.2962 43.6708 20.5013 43.0847 19.9153C42.4987 19.3292 41.7038 19 40.875 19H22.125Z" fill="#3E80FF"/>
</svg>
