<svg width="43" height="48" viewBox="0 0 43 48" fill="none" xmlns="http://www.w3.org/2000/svg">
<path d="M21.5 0C9.62722 0 0 9.672 0 21.6C0 31.608 6.78444 40.008 15.9817 42.456L21.5 48L27.0183 42.456C36.2156 40.008 43 31.608 43 21.6C43 9.672 33.3728 0 21.5 0ZM21.5 4.8C25.4656 4.8 28.6667 8.016 28.6667 12C28.6667 15.984 25.4656 19.2 21.5 19.2C17.5344 19.2 14.3333 15.984 14.3333 12C14.3333 8.016 17.5344 4.8 21.5 4.8ZM21.5 39.12C15.5278 39.12 10.2483 36.048 7.16667 31.392C7.23833 26.616 16.7222 24 21.5 24C26.2539 24 35.7617 26.616 35.8333 31.392C32.7517 36.048 27.4722 39.12 21.5 39.12Z" fill="#3E80FF"/>
</svg>
