<svg width="57" height="57" viewBox="0 0 57 57" fill="none" xmlns="http://www.w3.org/2000/svg">
<path d="M28.5 0C12.7395 0 0 12.7395 0 28.5C0 44.2605 12.7395 57 28.5 57C44.2605 57 57 44.2605 57 28.5C57 12.7395 44.2605 0 28.5 0Z" fill="#EAF1FF"/>
<path d="M34.125 26.9075C33.5583 24.1044 31.0333 22 28 22C25.5917 22 23.5 23.3325 22.4583 25.2825C19.95 25.5425 18 27.6144 18 30.125C18 32.8144 20.2417 35 23 35H33.8333C36.1333 35 38 33.18 38 30.9375C38 28.7925 36.2917 27.0537 34.125 26.9075ZM29.6667 29.3125V32.5625H26.3333V29.3125H23.8333L28 25.25L32.1667 29.3125H29.6667Z" fill="#3E80FF"/>
</svg>
